<?xml version="1.0" encoding="UTF-8"?>
<!DOCTYPE svg PUBLIC "-//W3C//DTD SVG 1.1//EN" "http://www.w3.org/Graphics/SVG/1.1/DTD/svg11.dtd">
<!-- Creator: CorelDRAW 2020 (64-Bit) -->
<svg xmlns="http://www.w3.org/2000/svg" xml:space="preserve" width="9.685mm" height="8.4667mm" version="1.1" style="shape-rendering:geometricPrecision; text-rendering:geometricPrecision; image-rendering:optimizeQuality; fill-rule:evenodd; clip-rule:evenodd"
viewBox="0 0 620.62 542.55"
 xmlns:xlink="http://www.w3.org/1999/xlink"
 xmlns:xodm="http://www.corel.com/coreldraw/odm/2003">
 <defs>
  <style type="text/css">
   <![CDATA[
    .fil0 {fill:#4C6EF5}
   ]]>
  </style>
 </defs>
 <g id="Capa_x0020_1">
  <metadata id="CorelCorpID_0Corel-Layer"/>
  <g id="_1682191794368">
   <path class="fil0" d="M516.48 243.54c16.73,-4.39 31.8,7.13 34.79,21.23 3.64,17.15 -7.86,31.8 -21.27,34.82 -36.39,8.18 -51.33,-46.13 -13.51,-56.05zm-77.58 0.12c34.92,-10.17 51.87,45.3 14.5,55.67 -34.55,9.58 -54.37,-44.06 -14.5,-55.67zm-407.67 -48.39c-30.89,6.91 -30.52,32.14 -30.51,65.83 0.01,33.89 -5.9,63.3 16.25,79.88 16.78,12.57 64.04,7.7 88.41,7.7l387.39 0c23.26,0 77,2.73 96.76,-1.02 35.19,-6.68 30.53,-45.7 30.52,-65.38 0,-30.87 5.15,-65.84 -15.63,-80.43 -17.46,-12.25 -64.05,-7.82 -89.03,-7.82l-387.39 0c-21.57,0 -79.65,-2.6 -96.77,1.24z"/>
   <path class="fil0" d="M517.11 50.32c37.82,-9.03 48.19,48.18 13.14,56.08 -37.82,8.53 -51.34,-46.96 -13.14,-56.08zm-77.63 0.1c16.27,-4.2 31.06,6.85 34.22,20.72 4.04,17.74 -7.34,32.32 -21.15,35.31 -36.83,7.98 -51.22,-46.19 -13.07,-56.03zm-407.49 -48.22c-31.76,7.52 -31.19,31.18 -31.19,65.45 -0.01,31.76 -5.88,65.41 15.95,80.08 13.23,8.89 22.57,7.84 40.56,7.84l339.33 -0.03c26.54,-0.01 180.6,1.86 193.04,-1.08 34.97,-8.28 30.3,-42.63 30.3,-65.62 0.01,-30.27 5.25,-66.34 -15.82,-80.2 -19.17,-12.61 -62.82,-7.68 -88.76,-7.68 -32.51,0 -65.04,-0.03 -97.56,-0.04l-289.84 0.04c-20.69,0 -80.02,-2.53 -96.01,1.26z"/>
   <path class="fil0" d="M515.16 437.02c17.07,-5.37 32.48,6.7 35.78,20.06 4.22,17.11 -6.18,31.48 -19.08,35.17 -37.85,10.84 -52.8,-43.86 -16.69,-55.23zm-77.1 -0.36c16.76,-5.03 32.92,8.14 35.72,21.29 3.89,18.28 -7.02,31.32 -20.84,34.69 -37.4,9.12 -50.65,-45.26 -14.88,-55.98zm-436.43 72.99c2.26,13.28 11.32,23.22 20.52,28.05 11.49,6.04 29.58,4.1 43.63,4.11l289.84 -0.01c25.85,0.06 223.97,2.71 239.01,-2.42 9.73,-3.33 20.2,-14.16 23.29,-24.77 3.11,-10.7 3.42,-80.61 1.54,-93.19 -5.73,-38.26 -40.74,-33.92 -64.48,-33.92l-483.53 -0.01c-24.34,-0.01 -59.01,-6.05 -68.78,28.05 -3.03,10.57 -3.13,81.71 -1.03,94.09z"/>
  </g>
 </g>
</svg>
