<?xml version="1.0" encoding="UTF-8"?>
<!DOCTYPE svg PUBLIC "-//W3C//DTD SVG 1.1//EN" "http://www.w3.org/Graphics/SVG/1.1/DTD/svg11.dtd">
<!-- Creator: CorelDRAW 2020 (64-Bit) -->
<svg xmlns="http://www.w3.org/2000/svg" xml:space="preserve" width="8.4636mm" height="8.4668mm" version="1.1" style="shape-rendering:geometricPrecision; text-rendering:geometricPrecision; image-rendering:optimizeQuality; fill-rule:evenodd; clip-rule:evenodd"
viewBox="0 0 122.58 122.63"
 xmlns:xlink="http://www.w3.org/1999/xlink"
 xmlns:xodm="http://www.corel.com/coreldraw/odm/2003">
 <defs>
  <style type="text/css">
   <![CDATA[
    .fil0 {fill:#785BE1}
   ]]>
  </style>
 </defs>
 <g id="Capa_x0020_1">
  <metadata id="CorelCorpID_0Corel-Layer"/>
  <g id="_1682285796064">
   <path class="fil0" d="M11.18 82.69c-0.59,-8.53 -0.44,-41.26 0.54,-49.57 0.99,-8.39 3.44,-12.7 8.27,-16.69 8.73,-7.22 32.43,-5.3 44.8,-5.42 14.16,-0.13 33.03,-1.7 41.3,8.93 4.17,5.36 4.92,11.92 5.31,20.12 0.47,9.73 0.56,40.37 -0.5,49.35 -1.98,16.91 -11.68,21.28 -28.17,22.05 -8.98,0.42 -41.57,0.45 -49.67,-0.58 -7.93,-1.01 -13.14,-3.58 -16.67,-8.31 -4.4,-5.89 -4.64,-11.38 -5.23,-19.88zm111.18 -1.28c0.33,-10.05 0.2,-20.34 0.15,-30.42 -0.1,-18.33 0.55,-34.98 -16.21,-45.35 -7.25,-4.49 -15.72,-5.11 -25.18,-5.4 -10.11,-0.31 -20.28,-0.23 -30.41,-0.19 -8.67,0.04 -20.19,-0.07 -27.91,2.54 -4.02,1.36 -7.06,3.24 -9.95,5.42 -10.34,7.77 -12.27,20.04 -12.65,33.06 -0.3,10.2 -0.17,20.53 -0.14,30.74 0.05,17.89 -0.35,35.46 16.34,45.21 8.1,4.73 14.89,5.07 25.03,5.38 10.11,0.31 20.28,0.24 30.42,0.2 18.02,-0.08 34.71,0.35 44.99,-16.05 4.6,-7.33 5.2,-15.41 5.53,-25.13z"/>
   <path class="fil0" d="M41 63.8c-1.59,-11.89 7.49,-21.47 17.71,-22.73 12.19,-1.5 21.85,7.39 22.91,18.06 2.27,22.94 -28.12,30.65 -38.1,12.17 -1.29,-2.39 -2.12,-4.53 -2.51,-7.5zm16.87 -33.7c-8.13,1.06 -12.99,3.72 -18.66,8.75 -0.8,0.71 -1.19,1.41 -1.93,2.24 -4.75,5.25 -8.36,14.48 -7.24,23.85 1.94,16.17 16.53,29.79 35.02,27.6 7.6,-0.9 13.28,-3.87 18.32,-8.89 6.2,-6.18 10.53,-14.98 9.14,-26.11 -1.24,-9.9 -6.11,-15.94 -11.05,-20.31 -5.3,-4.7 -14.38,-8.31 -23.59,-7.12z"/>
   <path class="fil0" d="M92.49 21.49c-10.33,2.9 -5.32,16.68 3.41,14.14 9.78,-2.85 4.99,-16.51 -3.41,-14.14z"/>
  </g>
 </g>
</svg>
