<?xml version="1.0" encoding="UTF-8"?>
<!DOCTYPE svg PUBLIC "-//W3C//DTD SVG 1.1//EN" "http://www.w3.org/Graphics/SVG/1.1/DTD/svg11.dtd">
<!-- Creator: CorelDRAW 2020 (64-Bit) -->
<svg xmlns="http://www.w3.org/2000/svg" xml:space="preserve" width="8.4677mm" height="8.4668mm" version="1.1" style="shape-rendering:geometricPrecision; text-rendering:geometricPrecision; image-rendering:optimizeQuality; fill-rule:evenodd; clip-rule:evenodd"
viewBox="0 0 57.22 57.21"
 xmlns:xlink="http://www.w3.org/1999/xlink"
 xmlns:xodm="http://www.corel.com/coreldraw/odm/2003">
 <defs>
  <style type="text/css">
   <![CDATA[
    .fil0 {fill:#4C6EF5}
   ]]>
  </style>
 </defs>
 <g id="Capa_x0020_1">
  <metadata id="CorelCorpID_0Corel-Layer"/>
  <g id="_2202452264576">
   <path class="fil0" d="M5.57 29.28c-0.17,-3.32 0.68,-6.87 1.8,-9.64 1.04,-2.56 2.77,-5.01 4.58,-6.89 6.34,-6.59 16.25,-9.29 25.7,-5.33 3.9,1.64 5.86,3.57 8.39,6.05 1.01,0.99 2.73,3.93 3.39,5.25 2.82,5.63 2.98,13.09 0.43,18.97 -1.06,2.45 -3.13,5.63 -4.57,6.9 -1.2,1.07 -1.68,1.66 -3.02,2.65 -7.73,5.67 -18.81,5.97 -26.43,0.63 -6.32,-4.43 -9.84,-10.51 -10.26,-18.59zm21.45 -29.2c-8.97,0.7 -15.4,4.7 -19.47,9.22l-1.62 1.88c-4.08,5.06 -6.26,12.44 -5.88,19.17 0.35,6.24 2.44,10.91 5.79,15.64 0.36,0.51 1.24,1.59 1.6,1.91 0.39,0.34 0.53,0.52 0.88,0.87 1.94,1.93 2.62,2.47 4.98,4.06 9.55,6.46 23.72,5.6 32.71,-1.44 2.92,-2.29 4.85,-4.44 6.82,-7.49 5.36,-8.31 5.85,-19.42 1.3,-28.25 -1.09,-2.11 -2.8,-4.69 -4.38,-6.28 -0.32,-0.32 -0.53,-0.58 -0.85,-0.9 -5.73,-5.6 -13.51,-9.04 -21.86,-8.39z"/>
   <path class="fil0" d="M28.61 24.01c-0.58,-0.37 -1.95,-1.86 -2.53,-2.46 -5.55,-5.65 -5.18,-6.16 -7.94,-3.29 -2.51,2.61 -2.26,2.17 1.05,5.46 0.75,0.74 4.33,4.18 4.83,5.01l-7.34 7.38c-0.74,1.28 0.95,2.36 1.5,2.92 0.53,0.54 1.81,2.47 3.07,1.51 0.87,-0.66 6.49,-6.75 7.36,-7.26 0.67,0.35 1.97,1.83 2.58,2.46l4.95 4.91c0.82,0.4 1.37,-0.03 1.77,-0.45l2.51 -2.48c1.07,-1.49 -1.05,-2.87 -2.4,-4.22 -0.84,-0.84 -4.45,-4.26 -4.82,-4.94 1.63,-1.65 3.25,-3.24 4.92,-4.89 0.39,-0.39 2.28,-2.16 2.47,-2.53 0.64,-1.24 -1.01,-2.35 -1.57,-2.94 -0.54,-0.56 -1.7,-2.3 -2.97,-1.48 -0.91,0.59 -6.43,6.58 -7.43,7.29z"/>
  </g>
 </g>
</svg>
