<?xml version="1.0" encoding="UTF-8"?>
<!DOCTYPE svg PUBLIC "-//W3C//DTD SVG 1.1//EN" "http://www.w3.org/Graphics/SVG/1.1/DTD/svg11.dtd">
<!-- Creator: CorelDRAW 2020 (64-Bit) -->
<svg xmlns="http://www.w3.org/2000/svg" xml:space="preserve" width="10.3929mm" height="8.4668mm" version="1.1" style="shape-rendering:geometricPrecision; text-rendering:geometricPrecision; image-rendering:optimizeQuality; fill-rule:evenodd; clip-rule:evenodd"
viewBox="0 0 126.14 102.76"
 xmlns:xlink="http://www.w3.org/1999/xlink"
 xmlns:xodm="http://www.corel.com/coreldraw/odm/2003">
 <defs>
  <style type="text/css">
   <![CDATA[
    .fil0 {fill:#785BE1}
   ]]>
  </style>
 </defs>
 <g id="Capa_x0020_1">
  <metadata id="CorelCorpID_0Corel-Layer"/>
  <path class="fil0" d="M111.42 16.13c0.83,-0.29 2.93,-2.09 3.66,-2.68 3.79,-3.1 5.72,-6.98 7.66,-11.53 -4.38,2.56 -9.25,4.43 -14.31,5.77 -2.81,0.74 -2.56,0.01 -4.22,-1.42 -8.22,-7.1 -21.26,-8.55 -30.51,-2.39 -9.91,6.59 -13.24,14.97 -11.75,27.92 -18.89,-1 -36.05,-8.93 -48.57,-21.74 -0.85,-0.87 -1.73,-1.51 -2.45,-2.45 -0.61,-0.8 -1.66,-2.07 -2.33,-2.68 -0.9,1.08 -1.72,3.04 -2.15,4.32 -3.75,11.44 0.28,23.43 9.88,30.1 -5.32,-0.03 -7.38,-1.72 -11.51,-3.18 0.22,11.47 6.28,20.31 16.25,24.33 1.32,0.53 3.01,0.88 4.1,1.47 -4.49,0.88 -6.45,0.86 -11.2,0.51 0.78,2.95 2.23,5.19 3.65,7.25 4.81,6.97 11.68,9.67 20.57,10.67 -0.28,0.05 -2.88,2.07 -3.51,2.49 -3.78,2.55 -8.38,4.66 -12.74,6.04 -10.1,3.2 -13.08,2.07 -21.94,2.34 1.69,1.45 5.61,3.34 8.04,4.55 8.83,4.4 20.77,6.88 30.91,6.95 15.38,0.12 28.8,-3.91 39.82,-10.79 1.35,-0.84 2.6,-1.64 3.79,-2.57 1.37,-1.06 2.28,-1.8 3.59,-2.77 0.91,-0.68 0.85,-0.77 1.66,-1.52 1.97,-1.84 2.17,-1.68 4.96,-4.59 13.64,-14.27 20.85,-34.59 20.53,-55.03 1.27,-0.59 6.17,-5.09 7.13,-6.11l5.72 -7c-1.05,0.07 -5.36,1.78 -6.98,2.26 -2.21,0.65 -5.45,1.47 -7.74,1.49z"/>
 </g>
</svg>
