<?xml version="1.0" encoding="UTF-8"?>
<!DOCTYPE svg PUBLIC "-//W3C//DTD SVG 1.1//EN" "http://www.w3.org/Graphics/SVG/1.1/DTD/svg11.dtd">
<!-- Creator: CorelDRAW 2020 (64-Bit) -->
<svg xmlns="http://www.w3.org/2000/svg" xml:space="preserve" width="8.4675mm" height="8.4668mm" version="1.1" style="shape-rendering:geometricPrecision; text-rendering:geometricPrecision; image-rendering:optimizeQuality; fill-rule:evenodd; clip-rule:evenodd"
viewBox="0 0 71.16 71.16"
 xmlns:xlink="http://www.w3.org/1999/xlink"
 xmlns:xodm="http://www.corel.com/coreldraw/odm/2003">
 <defs>
  <style type="text/css">
   <![CDATA[
    .fil0 {fill:#4C6EF5}
   ]]>
  </style>
 </defs>
 <g id="Capa_x0020_1">
  <metadata id="CorelCorpID_0Corel-Layer"/>
  <g id="_2202453515552">
   <path class="fil0" d="M64.18 36.89c-0.5,7.64 -3.52,14.83 -9.06,19.71 -20.6,18.14 -49.58,1.72 -48.15,-22.41 0.4,-6.71 2.24,-10.84 5.7,-15.84 0.97,-1.4 3.9,-4.38 5.31,-5.43 0.72,-0.53 1.25,-0.95 2.08,-1.44 5.15,-3.09 10.38,-4.87 16.91,-4.51 9.35,0.52 16.09,5.01 20.43,9.94 4.42,5.01 7.24,13.08 6.78,19.98zm-30.58 -36.8c-11.32,0.85 -19,5.8 -24.21,11.46 -5.43,5.88 -9.96,14.92 -9.33,26.18 1.05,18.9 17.41,34.6 37.7,33.36 18.98,-1.16 34.57,-17.36 33.33,-37.71 -0.52,-8.65 -4.34,-17.01 -10.32,-22.86 -3.59,-3.52 -7.19,-6.04 -12.13,-8.01 -4.37,-1.74 -9.81,-2.82 -15.04,-2.42z"/>
   <path class="fil0" d="M24.6 37.29c-2.18,-2.21 -3.95,-4.96 -5.91,-3.53 -0.53,0.38 -0.91,0.86 -1.33,1.35 -0.48,0.55 -0.86,0.81 -1.29,1.23 -2.06,2.05 -0.75,2.96 0.24,3.87 2.4,2.22 7.12,7.22 9.38,9.58 2.5,2.6 3.59,4.52 5.97,2.14 3.4,-3.42 6.72,-6.82 10.13,-10.17 3.48,-3.42 6.87,-6.7 10.34,-10.13 0.76,-0.75 3.27,-3.12 3.77,-3.96 0.92,-1.55 -0.91,-2.66 -1.33,-3.07 -1.62,-1.61 -2.55,-3.49 -4.35,-2.44 -1.1,0.64 -4.14,4.17 -5.13,5.11l-5.13 5.1c-1.72,1.75 -3.42,3.35 -5.17,5.06l-5.09 4.93 -5.1 -5.08z"/>
  </g>
 </g>
</svg>
