<?xml version="1.0" encoding="UTF-8"?>
<!DOCTYPE svg PUBLIC "-//W3C//DTD SVG 1.1//EN" "http://www.w3.org/Graphics/SVG/1.1/DTD/svg11.dtd">
<!-- Creator: CorelDRAW 2020 (64-Bit) -->
<svg xmlns="http://www.w3.org/2000/svg" xml:space="preserve" width="7.4275mm" height="8.4667mm" version="1.1" style="shape-rendering:geometricPrecision; text-rendering:geometricPrecision; image-rendering:optimizeQuality; fill-rule:evenodd; clip-rule:evenodd"
viewBox="0 0 342.73 390.68"
 xmlns:xlink="http://www.w3.org/1999/xlink"
 xmlns:xodm="http://www.corel.com/coreldraw/odm/2003">
 <defs>
  <style type="text/css">
   <![CDATA[
    .fil0 {fill:#4C6EF5}
   ]]>
  </style>
 </defs>
 <g id="Capa_x0020_1">
  <metadata id="CorelCorpID_0Corel-Layer"/>
  <g id="_1682192080480">
   <path class="fil0" d="M305.12 354.15l-267.35 -0.07c-1.27,-1.55 -0.51,1 -1.23,-2.8 -0.02,-0.1 -0.1,-2.4 -0.11,-2.63l0.08 -37.59c0.01,-24.41 -1.14,-111.92 0.13,-129.02l269.35 0.42c0.93,13.2 0.33,69.65 0.19,86.59 -0.04,3.92 1.52,81.39 -1.07,85.1zm-206.79 -208.57c-0.98,-9.09 -1,-37.03 0.14,-45.85 4.43,-34.4 33.26,-63.83 72.87,-64.25 39.24,-0.42 69.22,30.89 72.89,65.04 0.99,9.25 1.24,35.98 0.15,45.08l-146.05 -0.02zm91.3 -145.59l-36.52 0c-2.77,1.31 -8.47,2.05 -11.82,2.95 -24.39,6.53 -46.31,22.97 -60.42,43.33 -26.94,38.89 -16.25,66.56 -19.77,99.31 -21.35,0 -36.39,-2.37 -49.27,10.44 -14.16,14.09 -11.44,25.17 -11.44,48.66 -0,39.63 -0.01,79.26 -0.01,118.88 0,19 -2.93,39.77 7.41,52.69 11.49,14.35 21.23,14.33 44.67,14.36 39.62,0.05 79.26,0.09 118.88,-0.01 39.91,-0.1 79.86,-0.09 119.77,-0 23.04,0.05 33.46,-0.63 44.5,-15.38 9.71,-12.98 6.67,-34.79 6.67,-52.55 0.01,-39.63 0,-79.26 0,-118.88 0,-23.9 2.42,-34.27 -11.83,-48.28 -12.47,-12.26 -28.59,-9.89 -48.93,-9.89 -2.26,-18.98 1.59,-37.68 -2.37,-57.73 -5.93,-30.06 -23.25,-54.88 -47.86,-71 -22.47,-14.72 -32.95,-13.18 -41.68,-16.89z"/>
  </g>
 </g>
</svg>
