<?xml version="1.0" encoding="UTF-8"?>
<!DOCTYPE svg PUBLIC "-//W3C//DTD SVG 1.1//EN" "http://www.w3.org/Graphics/SVG/1.1/DTD/svg11.dtd">
<!-- Creator: CorelDRAW 2020 (64-Bit) -->
<svg xmlns="http://www.w3.org/2000/svg" xml:space="preserve" width="6.3487mm" height="8.4668mm" version="1.1" style="shape-rendering:geometricPrecision; text-rendering:geometricPrecision; image-rendering:optimizeQuality; fill-rule:evenodd; clip-rule:evenodd"
viewBox="0 0 58.96 78.63"
 xmlns:xlink="http://www.w3.org/1999/xlink"
 xmlns:xodm="http://www.corel.com/coreldraw/odm/2003">
 <defs>
  <style type="text/css">
   <![CDATA[
    .fil0 {fill:#4C6EF5}
   ]]>
  </style>
 </defs>
 <g id="Capa_x0020_1">
  <metadata id="CorelCorpID_0Corel-Layer"/>
  <g id="_1682190485392">
   <path class="fil0" d="M7.41 7.42l24.54 -0 -0 14.75c-0,3.67 1.13,4.89 4.96,4.88l14.65 -0c0.17,0.27 0.1,0.5 0.1,1.33l-0 42.93 -44.36 0 0.11 -63.89zm32.04 0.74l11.36 11.36 0.2 0.21 -11.77 -0 0.04 -11.77 0.17 0.2zm-39.36 64.06c0.31,2.46 1.94,4.37 3.39,5.25 2.36,1.44 4.4,1.11 7.38,1.11l34.38 0c2.02,0 6.57,0.22 8.26,-0.24 2.19,-0.6 3.84,-2.13 4.67,-3.87 1.08,-2.25 0.73,-5.29 0.73,-7.94l-0 -42.93c0,-5.42 0.25,-6.18 -3.21,-9.64l-2.18 -2.09c-0.78,-0.78 -1.36,-1.35 -2.14,-2.23 -1.07,-1.21 -3.02,-2.93 -4.32,-4.23 -0.37,-0.37 -0.65,-0.75 -1.02,-1.12l-2.23 -2.14c-1,-1.14 -2.73,-1.95 -4.35,-2.06 -2.63,-0.19 -5.86,-0.03 -8.55,-0.03 -5.73,0 -11.46,-0 -17.19,0 -2.09,0 -6.55,-0.23 -8.31,0.26 -2.22,0.62 -3.8,2.15 -4.64,3.91 -1.06,2.21 -0.71,5.37 -0.71,7.96 0,2.85 0,5.7 0,8.55 0,3.11 -0.14,50.05 0.04,51.47z"/>
   <path class="fil0" d="M31.32 32.93c-0.79,0.32 -0.86,1 -1.11,1.87 -0.22,0.76 -0.45,1.54 -0.67,2.28l-6.69 23.01c-0.54,1.86 -1.45,3.54 0.11,4.19 0.78,0.33 4.01,1.33 4.67,1.09 0.96,-0.35 1.35,-2.68 1.77,-4.13l7.36 -25.29c0.29,-0.97 0.09,-1.62 -0.71,-1.95 -0.77,-0.32 -4.11,-1.33 -4.73,-1.08z"/>
   <path class="fil0" d="M40.94 49.13c-0.28,0.31 -0.26,0.32 -0.6,0.58l-4.5 4.05c-0.93,1.12 0.3,2 0.63,2.33 0.22,0.22 0.37,0.41 0.57,0.66 0.36,0.45 0.81,0.82 1.19,1.25 0.32,0.36 0.78,0.92 1.59,0.76 0.64,-0.12 2.14,-1.81 2.64,-2.25l5.71 -5.29c0.24,-0.22 0.36,-0.4 0.59,-0.62 0.4,-0.38 0.97,-0.6 0.97,-1.46 -0,-0.93 -1.76,-2.16 -2.24,-2.64 -0.5,-0.5 -0.76,-0.76 -1.25,-1.19l-3.78 -3.54c-0.45,-0.51 -0.81,-0.75 -1.27,-1.17 -0.42,-0.39 -0.71,-0.94 -1.36,-1.06 -1.12,-0.21 -1.97,1.24 -2.73,2.04 -0.55,0.57 -2.21,1.65 -1.28,2.96l2.58 2.31c0.63,0.6 1.97,1.59 2.56,2.29z"/>
   <path class="fil0" d="M18.02 49.13l5.13 -4.61c0.96,-1.38 -0.69,-2.32 -1.26,-2.96 -0.42,-0.47 -0.68,-0.85 -1.16,-1.29 -1.55,-1.41 -1.73,-0.8 -2.94,0.31l-7.6 7.05c-0.5,0.52 -0.95,0.83 -0.95,1.48 0,0.83 0.58,1.1 0.97,1.47 0.23,0.22 0.36,0.41 0.59,0.62 0.24,0.22 0.41,0.36 0.65,0.57 0.45,0.39 0.8,0.8 1.25,1.19 0.24,0.21 0.41,0.36 0.65,0.57 0.89,0.8 5.15,5.08 5.78,5.2 0.85,0.17 1.27,-0.41 1.59,-0.78 0.41,-0.47 0.79,-0.75 1.19,-1.25l1.19 -1.26c0.36,-0.51 0.41,-1.21 0.02,-1.72l-4.51 -4.04c-0.36,-0.27 -0.32,-0.26 -0.6,-0.58z"/>
   <path class="fil0" d="M51.56 27.05l-0.01 44.15 -44.15 0 0 -63.79 -0.11 63.89 44.36 -0 0 -42.93c0,-0.82 0.07,-1.06 -0.1,-1.33z"/>
   <path class="fil0" d="M50.82 19.53c-0.14,0.24 -2.44,0.1 -2.72,0.1l-8.76 0.01c0,-1.94 0.01,-3.87 0.01,-5.81l-0.01 -5.39c0.06,-0.44 -0.04,-0.12 0.12,-0.28l-0.17 -0.2 -0.04 11.77 11.77 0 -0.2 -0.21z"/>
  </g>
 </g>
</svg>
