<?xml version="1.0" encoding="UTF-8"?>
<!DOCTYPE svg PUBLIC "-//W3C//DTD SVG 1.1//EN" "http://www.w3.org/Graphics/SVG/1.1/DTD/svg11.dtd">
<!-- Creator: CorelDRAW 2020 (64-Bit) -->
<svg xmlns="http://www.w3.org/2000/svg" xml:space="preserve" width="4.5528mm" height="8.4668mm" version="1.1" style="shape-rendering:geometricPrecision; text-rendering:geometricPrecision; image-rendering:optimizeQuality; fill-rule:evenodd; clip-rule:evenodd"
viewBox="0 0 15.1 28.08"
 xmlns:xlink="http://www.w3.org/1999/xlink"
 xmlns:xodm="http://www.corel.com/coreldraw/odm/2003">
 <defs>
  <style type="text/css">
   <![CDATA[
    .fil0 {fill:#785BE1}
    .fil1 {fill:#B27FE6}
   ]]>
  </style>
 </defs>
 <g id="Capa_x0020_1">
  <metadata id="CorelCorpID_0Corel-Layer"/>
  <g id="_1682287917536">
   <path class="fil0" d="M4.53 6.03c0.05,0.36 -0.05,0.8 -0.05,1.19l0 3.5c-0.6,0.15 -3.63,0.04 -4.48,0.04l-0 5.03 4.46 -0 -0 12.27 5.5 0.02 -0 -12.28 4.09 -0 0.79 -5.08 -4.84 -0.01c-0.1,-0.48 -0.04,-3.63 0.06,-4.1 0.28,-1.22 1.37,-2.03 2.33,-1.88 0.28,-0.18 2.34,-0.08 2.64,-0.08l0 -4.23 -0.19 -0.15c-0.91,0.11 -4.67,-0.95 -7.26,0.54 -0.89,0.51 -1.58,1.14 -2.11,2 -0.45,0.73 -1.03,2.23 -0.94,3.23z"/>
   <path class="fil1" d="M0 10.76c0.85,0 3.88,0.11 4.48,-0.04l-0 -3.5c0,-0.39 0.1,-0.83 0.05,-1.19 -0.22,0.12 -0.1,4.11 -0.11,4.66l-4.42 0.08z"/>
   <path class="fil1" d="M12.39 4.73c0.22,0.03 1.03,-0.04 1.36,-0.04 0.46,-0 0.9,0.03 1.36,0.03l-0.01 -4.44 -0.25 -0.02 0.19 0.15 -0 4.23c-0.3,0 -2.36,-0.09 -2.64,0.08z"/>
  </g>
 </g>
</svg>
