<?xml version="1.0" encoding="UTF-8"?>
<!DOCTYPE svg PUBLIC "-//W3C//DTD SVG 1.1//EN" "http://www.w3.org/Graphics/SVG/1.1/DTD/svg11.dtd">
<!-- Creator: CorelDRAW 2020 (64-Bit) -->
<svg xmlns="http://www.w3.org/2000/svg" xml:space="preserve" width="12.2202mm" height="8.4666mm" version="1.1" style="shape-rendering:geometricPrecision; text-rendering:geometricPrecision; image-rendering:optimizeQuality; fill-rule:evenodd; clip-rule:evenodd"
viewBox="0 0 425.39 294.73"
 xmlns:xlink="http://www.w3.org/1999/xlink"
 xmlns:xodm="http://www.corel.com/coreldraw/odm/2003">
 <defs>
  <style type="text/css">
   <![CDATA[
    .fil0 {fill:#4C6EF5}
   ]]>
  </style>
 </defs>
 <g id="Capa_x0020_1">
  <metadata id="CorelCorpID_0Corel-Layer"/>
  <g id="_1682148952032">
   <path class="fil0" d="M259.12 0l-94.58 0c-9.24,4.43 -53.98,5.02 -115.59,43.52 -11.88,7.43 -20.22,13.54 -31.36,22.29 -1.68,1.32 -3.34,2.59 -4.78,3.79 -1.77,1.5 -2.39,2.74 -4.25,4.27 -2.45,2.01 -7.43,4.89 -8.36,9.59 -2.02,10.22 11.75,18.87 22.29,30.25 2.27,2.45 6.17,6.08 11.55,5.69 4.57,-0.32 8.5,-4.42 11.14,-6.54l9.71 -8.16c74,-60.04 186.35,-72.3 272.1,-27.81 17.12,8.88 33.64,19.52 48.11,31.28 2.06,1.67 2.38,2.49 4.51,4.05 4.33,3.17 5.41,6.76 11.05,7.25 6.4,0.55 12.85,-6.3 16.3,-10.57l13.21 -13.24c1.52,-1.47 3.15,-2.43 4.08,-4.49 4.26,-9.36 -4.54,-14.21 -8.33,-17.6 -2.01,-1.8 -2.14,-2.44 -4.43,-4.13 -6.1,-4.46 -7.3,-6.75 -14.69,-11.74 -36.4,-24.59 -63.23,-40.15 -108.06,-51.51 -5.19,-1.31 -27.24,-4.91 -29.62,-6.19z"/>
   <path class="fil0" d="M199.68 103.75c-31.89,2.34 -54.56,9.25 -80.26,21.85 -8.22,4.03 -40.75,24.26 -44.27,32.03 -4.45,9.82 9.42,18.65 19.55,28.62 3.5,3.44 7.78,10.72 15.99,8.47 3.03,-0.84 19.17,-14.41 30.81,-20.53 50.91,-26.78 111.28,-22.94 158.09,10.25 3.04,2.15 11.16,9.44 14.59,10.34 8.03,2.11 10.69,-3.33 16.11,-8.46 4.6,-4.35 8.44,-8.31 12.99,-12.68 3.06,-2.94 10.72,-8.82 6.3,-16.55 -3.05,-5.35 -21.24,-18.13 -28.14,-22.5 -34.5,-21.84 -78.94,-33.97 -121.77,-30.83z"/>
   <path class="fil0" d="M203.5 210.79c-23.81,5.55 -37.36,27.52 -32.6,50.26 4.36,20.8 24.84,37.84 50.59,32.78 35.36,-6.96 45.64,-55.28 15.88,-75.97 -9.2,-6.4 -20.83,-10.11 -33.87,-7.06z"/>
  </g>
 </g>
</svg>
